<?xml version="1.0" encoding="utf-8"?>
<!-- Generator: Adobe Illustrator 19.1.0, SVG Export Plug-In . SVG Version: 6.00 Build 0)  -->
<svg version="1.1" id="Layer_1" xmlns="http://www.w3.org/2000/svg" xmlns:xlink="http://www.w3.org/1999/xlink" x="0px" y="0px"
	 viewBox="0 0 240 220" style="enable-background:new 0 0 240 220;" xml:space="preserve">
<style type="text/css">
	.st0{fill:#FE5B1B;}
	.st1{fill:#0A0A0A;}
	.st2{clip-path:url(#SVGID_2_);}
	.st3{fill:#FDFDFD;}
	.st4{fill:#D0D5D9;}
	.st5{fill:#FDFDFD;stroke:#FDFDFD;stroke-width:0.6062;stroke-miterlimit:10;}
	.st6{clip-path:url(#SVGID_4_);}
	.st7{fill:#D0D5D9;stroke:#FFFFFF;stroke-width:0.6062;stroke-miterlimit:10;}
	.st8{fill:#FFFFFF;}
</style>
<g>
	<g>
		<g>
			<path class="st0" d="M119.9,211.5L71,184.7c-24.3-13.3-39.3-38.8-39.3-66.4v-3.6L4.5,98.7l12.6-45.6l23.1-3.8L42.7,25l38.7-11.1
				c25-7.2,51.9-7.2,76.9,0L197.1,25l2.7,24.3l23.2,3.8l12.6,45.6L208,114.6v3.6c0,27.7-15.1,53.1-39.3,66.4L119.9,211.5z
				 M72.9,181.2l47,25.8l47-25.8c23-12.6,37.3-36.8,37.3-63v-5.9l26.8-15.5l-11.1-40.3l-23.6-3.8L193.5,28l-36.3-10.4
				c-24.3-7-50.4-7-74.8,0L46.4,28l-2.6,24.7l-23.6,3.8L9.1,96.8l26.5,15.5v5.9C35.6,144.5,49.9,168.6,72.9,181.2L72.9,181.2z"/>
		</g>
		<g>
			<path class="st1" d="M224.7,94.3l-9.1-33l-24.2-3.9l-2.8-25.2l-32.8-9.4c-23.5-6.7-48.4-6.7-71.8,0l-32.7,9.4l-2.6,25.2
				l-24.3,3.9l-9.1,33l25.6,15v8.9c0,24.3,13.2,46.7,34.5,58.3l44.5,24.4l44.4-24.4c21.3-11.7,34.5-34.1,34.5-58.3v-9L224.7,94.3z"
				/>
		</g>
	</g>
	<g>
		<path class="st0" d="M64,50c0,0,0.4-0.3,1.1-0.7c0.7-0.4,1.8-1.1,3.3-1.9c1.4-0.8,3.2-1.7,5.3-2.6c2.1-0.9,4.4-1.9,7.1-2.8
			c2.6-0.9,5.5-1.9,8.6-2.7c3.1-0.8,6.4-1.6,9.8-2.2c3.4-0.6,7-1.1,10.7-1.5c3.7-0.3,7.4-0.5,11.2-0.5l2.8,0l2.8,0.1
			c1.9,0.1,3.7,0.2,5.5,0.4c1.8,0.1,3.6,0.4,5.4,0.7c1.8,0.2,3.5,0.6,5.3,0.9c1.7,0.3,3.4,0.7,5,1.1c0.8,0.2,1.6,0.4,2.4,0.6
			c0.8,0.2,1.6,0.4,2.3,0.7c3.1,0.8,6,1.8,8.6,2.7c2.6,1,5,1.9,7.1,2.9c2.1,0.9,3.9,1.7,5.3,2.5c2.9,1.5,4.5,2.4,4.5,2.4
			s-1.8-0.6-4.8-1.6c-1.5-0.6-3.4-1.1-5.5-1.8c-0.5-0.2-1.1-0.3-1.7-0.5c-0.6-0.2-1.2-0.3-1.8-0.5c-1.2-0.3-2.5-0.7-3.8-1.1
			c-2.7-0.6-5.5-1.4-8.6-2c-0.8-0.2-1.5-0.3-2.3-0.5c-0.8-0.2-1.6-0.3-2.4-0.4c-1.6-0.3-3.3-0.6-5-0.8c-3.4-0.5-6.9-0.8-10.4-1.1
			c-1.8-0.1-3.6-0.2-5.4-0.3l-2.7-0.1l-2.7,0c-3.6-0.1-7.3,0.1-10.8,0.3c-3.6,0.3-7.1,0.6-10.4,1.1c-3.4,0.5-6.6,1-9.7,1.6
			c-3.1,0.6-6,1.3-8.6,2c-2.6,0.7-5.1,1.4-7.2,2c-2.1,0.7-4,1.3-5.5,1.8C65.7,49.3,64,50,64,50z"/>
	</g>
	<g>
		<polygon points="121.3,43.2 111.5,49.9 115.1,38.6 105.7,31.4 117.6,31.2 121.6,20.1 125.3,31.3 137.1,31.7 127.6,38.7 
			130.9,50.1 		"/>
	</g>
	<g>
		<polygon points="91.7,41.1 83.5,36.7 92.6,35 94.2,25.8 98.7,34 107.9,32.7 101.5,39.5 105.6,47.9 97.2,43.8 90.5,50.4 		"/>
	</g>
	<g>
		<polygon points="145.4,43.8 136.9,47.6 141.2,39.4 135,32.4 144.2,34 148.8,25.9 150.2,35.1 159.4,37 151,41.2 152,50.5 		"/>
	</g>
	<g>
		<path class="st0" d="M46.3,93.1l2.6-0.7l2.6,10.3l5.9-1.5l0.6,2.3l-8.5,2.1L46.3,93.1z"/>
		<path class="st0" d="M63.9,89.1l7.4,11.9l-2.7,0.5l-1.8-2.9l-4.8,0.9l-0.5,3.3l-2.7,0.5l2.4-13.8L63.9,89.1z M62.5,97.2l3.1-0.6
			l-2.4-4L62.5,97.2z"/>
		<path class="st0" d="M68.8,88.2l11-1.7l0.4,2.4L76,89.5l1.6,10.6l-2.7,0.4l-1.6-10.6l-4.1,0.6L68.8,88.2z"/>
		<path class="st0" d="M86.2,98.9l-2.7,0.3l-1.6-13l2.7-0.3L86.2,98.9z"/>
		<path class="st0" d="M99.4,97.7l-2.1,0.2l-6.9-8.1l0.8,8.7l-2.6,0.2l-1.1-13l2.5-0.2l6.5,7.7l-0.7-8.2l2.6-0.2L99.4,97.7z"/>
		<path class="st0" d="M107.3,97.5c-3.6,0.2-6.3-2.6-6.4-6.5c-0.2-3.9,2.2-6.8,5.9-7c3.6-0.2,6.3,2.6,6.5,6.5
			C113.4,94.4,110.9,97.3,107.3,97.5z M106.8,86.4c-2.1,0.1-3.3,1.9-3.2,4.5c0.1,2.6,1.5,4.3,3.6,4.2c2.1-0.1,3.4-1.9,3.3-4.5
			C110.4,88.1,108.9,86.3,106.8,86.4z"/>
		<path class="st0" d="M121.4,83.9l5,13.1l-2.8,0l-1.2-3.2l-4.9,0l-1.2,3.1l-2.7,0l5-13.1L121.4,83.9z M118.4,91.6l3.2,0l-1.6-4.3
			L118.4,91.6z"/>
		<path class="st0" d="M133.6,97.3l-2.8-8.7l-0.4,8.5l-2.6-0.1l0.6-13.1l3.2,0.2l3,9.4l3.9-9l3.2,0.2l-0.6,13.1l-2.6-0.1L139,89
			l-3.6,8.4L133.6,97.3z"/>
		<path class="st0" d="M153.5,85.7l-0.2,2.4l-6.2-0.6l-0.3,2.8l5.6,0.5l-0.2,2.3l-5.6-0.5l-0.3,3.1l6.2,0.6l-0.2,2.4l-8.8-0.8
			l1.2-13L153.5,85.7z M147.9,84l1.9-2.4l2.9,0.3l-2.2,2.4L147.9,84z"/>
		<path class="st0" d="M157.6,94.5l-0.6,4.8l-2.7-0.4l1.7-13l5.3,0.7c2.7,0.4,4.3,2.1,4,4.7c-0.3,2.1-1.6,3.2-3.5,3.4l2.8,5.5
			l-3-0.4l-2.6-5.3L157.6,94.5z M157.9,92.3l2.5,0.3c1.4,0.2,2.1-0.4,2.3-1.5c0.1-1.1-0.5-1.9-1.8-2.1l-2.5-0.3L157.9,92.3z"/>
		<path class="st0" d="M168.8,101l-2.7-0.4l2.1-12.9l2.7,0.4L168.8,101z"/>
		<path class="st0" d="M179,89.4c3,0.6,4.6,2.7,4.5,5.4l-2.7-0.5c-0.2-1.3-0.9-2.2-2.3-2.5c-2-0.4-3.6,1.2-4.1,3.6
			c-0.5,2.4,0.4,4.5,2.5,4.9c1.5,0.3,2.4-0.4,3.1-1.5l2.7,0.5c-1,2.5-3.2,3.9-6.2,3.3c-3.4-0.7-5.5-3.8-4.7-7.8
			C172.5,90.9,175.5,88.7,179,89.4z"/>
		<path class="st0" d="M192.7,92.5l1.9,13.9l-2.7-0.6l-0.4-3.3l-4.8-1.1l-1.8,2.8l-2.7-0.6l7.8-11.6L192.7,92.5z M188.1,99.3
			l3.1,0.7l-0.6-4.6L188.1,99.3z"/>
	</g>
	<g>
		<defs>
			<path id="SVGID_1_" d="M47.2,119.9c0,0,62.3-27,148.3,0l3.1,27.7c1,6.3-2.1,12.5-7.7,15.4l-69.5,36l-70-35.8
				c-5.8-3-8.9-9.4-7.7-15.8L47.2,119.9z"/>
		</defs>
		<clipPath id="SVGID_2_">
			<use xlink:href="#SVGID_1_"  style="overflow:visible;"/>
		</clipPath>
		<g class="st2">
			<circle class="st1" cx="121.2" cy="111.6" r="72.3"/>
			<g>
				<polygon class="st3" points="177,128.4 176.4,126.3 160.2,131.9 144.7,152.4 145.2,155.2 161.1,134.4 				"/>
				<path class="st4" d="M161.1,134.4l-15.9,20.9l1.5,9.3c0,0,11.4,1,19.3-4.6c7.9-5.6,14.9-19.3,14.9-19.3l-3.8-12.2L161.1,134.4z"
					/>
				<path class="st3" d="M118.7,147.7c0,0-16,7.1-23.1,9.1c0,0,0.1,0.7,0.3,1.9l22.8-8.8l23.5,5.8l-0.3-2.2L118.7,147.7z"/>
				<path class="st4" d="M95.9,158.7c0.4,2.2,1.2,6,2.6,10c0,0,13.3,4.4,22.8,5.2c0,0,9.6-1.2,22.4-8.1l-1.4-10.1l-23.5-5.8
					L95.9,158.7z"/>
				<path class="st4" d="M74.2,137c0,0,12.4,12.4,19.9,16.7c0,0,7.4-1.8,22.8-7.9v-17.9c-7,1-23.8,2-42.9-6.2
					C73.8,126.3,73.7,131.9,74.2,137z"/>
				<path class="st3" d="M117,127.9v-6.8l-21.2-17L75,112.1c0,0-0.6,4.1-0.9,9.7C93.1,129.9,109.9,128.9,117,127.9z"/>
				<path class="st3" d="M70.6,120.1c0.5-6,1.6-9.3,1.6-9.3c-1.3-1.9-2.7-5.5-2.7-5.5H55.3c-0.2,1.7-0.4,3.4-0.4,5.1
					C60.2,114.4,65.5,117.6,70.6,120.1z"/>
				<path class="st4" d="M62.4,141.6l8.8-4.8c-0.9-6.8-0.9-12.4-0.5-16.7c-5.1-2.5-10.4-5.7-15.7-9.8
					C54.3,128,62.4,141.6,62.4,141.6z"/>
				<path class="st3" d="M160.5,119.1l19.8-8.9c0.4-2.8,0.5-5,0.5-5l-18-9l-15.2,9l-0.2,1.4l8.6,11.2
					C156.9,119.3,158.9,119.8,160.5,119.1z"/>
				<path class="st4" d="M160.5,128.9l15.5-5.8c2.5-2.4,3.7-8.5,4.3-13l-19.8,8.9c-1.6,0.7-3.6,0.2-4.7-1.2l-8.6-11.2l-0.4,2.7
					L160.5,128.9z"/>
				<path class="st4" d="M118,118l25.6-9.3l0.6-3.2l-2-0.9l-19.8,7.7c-2.6,1-5.5,0.6-7.6-1.2l-9.3-7.4l-2.8,1.9L118,118z"/>
				<path class="st3" d="M122.5,112.3l19.8-7.7L119.6,94l-14.1,9.7l9.3,7.4C117,112.9,119.9,113.3,122.5,112.3z"/>
			</g>
		</g>
	</g>
	<g>
		<g>
			<g>
				<path class="st5" d="M47.1,65.7l-0.4,3.5l-9.4,2.4l-0.5,4.2l8.6-2.2l-0.3,3.4l-8.7,2.2l-0.5,4.6l9.8-2.4L45.4,85l-14.2,3.5
					l2.6-19.3L47.1,65.7z"/>
				<path class="st5" d="M61.2,81.3c-1.3,0.8-2.7,1.4-4.2,1.7c-5.7,1.1-9.1-2.4-8.3-8.2c0.9-5.9,5.2-10.9,10.4-11.9
					c5.2-1.1,8.5,2.4,8,8.2c-0.2,2.9-1.4,5.6-3.2,7.7l1.5,1.6l-2.8,2.6L61.2,81.3z M58.7,66.4c-3,0.6-5.3,3.7-5.8,7.5
					c-0.5,3.8,1.3,6.2,4.4,5.5c0.6-0.1,1.2-0.3,1.7-0.6l-1.4-1.7l2.8-2.5l1.4,1.6c0.7-1.2,1.1-2.6,1.3-4.4
					C63.5,68,61.8,65.8,58.7,66.4z"/>
				<path class="st5" d="M69.7,72.5l1.5-11.8l3.8-0.6l-1.3,11.4c-0.3,3.4,1,4.8,3.5,4.4c2.6-0.4,4.1-2.2,4.4-5.6L82.5,59l3.8-0.6
					l-0.7,11.8c-0.3,5.4-3.6,8.7-8.6,9.4C72.1,80.4,69.1,78,69.7,72.5z"/>
				<path class="st5" d="M92.4,77.6l-4,0.4L90,58.1l3.7-0.4L92.4,77.6z"/>
				<path class="st5" d="M100.3,70l-0.5,6.9l-4,0.2l1.7-19.9l7.2-0.5c3.7-0.3,6.1,1.9,6,6.1c-0.1,4.2-2.8,6.7-6.7,6.9L100.3,70z
					 M104.3,60.3l-3.4,0.2l-0.4,5.9l3.4-0.2c2-0.1,3-1.4,3.1-3.1C107.1,61.4,106.2,60.2,104.3,60.3z"/>
				<path class="st5" d="M120.8,76.5c-5.3,0-8.7-4.3-8.2-10.3c0.4-6,4.1-10.3,9-10.3c4.9,0,8.3,4.3,8.3,10.3
					C129.8,72.1,126.1,76.5,120.8,76.5z M121.4,59.6c-2.8,0-4.8,2.7-5,6.6c-0.2,3.9,1.6,6.6,4.5,6.6c3,0,5-2.7,5-6.6
					C126,62.3,124.2,59.6,121.4,59.6z"/>
				<path class="st5" d="M151.3,57.7l0.1,3.6l-8.5-0.7l-0.1,4.3l7.8,0.6l0.1,3.5l-7.9-0.6l-0.1,4.7l8.9,0.7l0.1,3.7l-13-1l0.6-19.9
					L151.3,57.7z M143.5,55.3l2.3-3.8l3.8,0.3l-2.6,3.7L143.5,55.3z"/>
				<path class="st5" d="M154.8,58.1l3.7,0.5l0.1,16.1l8.9,1.2l0.1,3.6l-13-1.7L154.8,58.1z"/>
				<path class="st5" d="M174.4,80.8l-4.1-0.7l-0.2-19.7l3.8,0.7L174.4,80.8z"/>
				<path class="st5" d="M177,61.6l15.8,3.5l0.3,3.6l-6.1-1.3l0.5,16l-4.2-0.9l-0.3-16l-6-1.3L177,61.6z"/>
				<path class="st5" d="M209.3,69.5l0.3,3.5l-9.3-2.5l0.1,4.2l8.5,2.2l0.2,3.4l-8.6-2.2l0.1,4.6l9.7,2.5l0.1,3.5l-14-3.5l-0.2-19.3
					L209.3,69.5z"/>
			</g>
		</g>
		<g>
			<defs>
				<path id="SVGID_3_" d="M24.1,82.8c0,0,92.9-34.8,193.9-0.5V113c0,0-195.2,1-195.2,0C22.8,111,24.1,82.8,24.1,82.8z"/>
			</defs>
			<clipPath id="SVGID_4_">
				<use xlink:href="#SVGID_3_"  style="overflow:visible;"/>
			</clipPath>
			<g class="st6">
				<path class="st7" d="M47.1,65.7l-0.4,3.5l-9.4,2.4l-0.5,4.2l8.6-2.2l-0.3,3.4l-8.7,2.2l-0.5,4.6l9.8-2.4L45.4,85l-14.2,3.5
					l2.6-19.3L47.1,65.7z"/>
				<path class="st7" d="M61.2,81.3c-1.3,0.8-2.7,1.4-4.2,1.7c-5.7,1.1-9.1-2.4-8.3-8.2c0.9-5.9,5.2-10.9,10.4-11.9
					c5.2-1.1,8.5,2.4,8,8.2c-0.2,2.9-1.4,5.6-3.2,7.7l1.5,1.6l-2.8,2.6L61.2,81.3z M58.7,66.4c-3,0.6-5.3,3.7-5.8,7.5
					c-0.5,3.8,1.3,6.2,4.4,5.5c0.6-0.1,1.2-0.3,1.7-0.6l-1.4-1.7l2.8-2.5l1.4,1.6c0.7-1.2,1.1-2.6,1.3-4.4
					C63.5,68,61.8,65.8,58.7,66.4z"/>
				<path class="st7" d="M69.7,72.5l1.5-11.8l3.8-0.6l-1.3,11.4c-0.3,3.4,1,4.8,3.5,4.4c2.6-0.4,4.1-2.2,4.4-5.6L82.5,59l3.8-0.6
					l-0.7,11.8c-0.3,5.4-3.6,8.7-8.6,9.4C72.1,80.4,69.1,78,69.7,72.5z"/>
				<path class="st7" d="M92.4,77.6l-4,0.4L90,58.1l3.7-0.4L92.4,77.6z"/>
				<path class="st7" d="M100.3,70l-0.5,6.9l-4,0.2l1.7-19.9l7.2-0.5c3.7-0.3,6.1,1.9,6,6.1c-0.1,4.2-2.8,6.7-6.7,6.9L100.3,70z
					 M104.3,60.3l-3.4,0.2l-0.4,5.9l3.4-0.2c2-0.1,3-1.4,3.1-3.1C107.1,61.4,106.2,60.2,104.3,60.3z"/>
				<path class="st7" d="M120.8,76.5c-5.3,0-8.7-4.3-8.2-10.3c0.4-6,4.1-10.3,9-10.3c4.9,0,8.3,4.3,8.3,10.3
					C129.8,72.1,126.1,76.5,120.8,76.5z M121.4,59.6c-2.8,0-4.8,2.7-5,6.6c-0.2,3.9,1.6,6.6,4.5,6.6c3,0,5-2.7,5-6.6
					C126,62.3,124.2,59.6,121.4,59.6z"/>
				<path class="st7" d="M151.3,57.7l0.1,3.6l-8.5-0.7l-0.1,4.3l7.8,0.6l0.1,3.5l-7.9-0.6l-0.1,4.7l8.9,0.7l0.1,3.7l-13-1l0.6-19.9
					L151.3,57.7z M143.5,55.3l2.3-3.8l3.8,0.3l-2.6,3.7L143.5,55.3z"/>
				<path class="st7" d="M154.8,58.1l3.7,0.5l0.1,16.1l8.9,1.2l0.1,3.6l-13-1.7L154.8,58.1z"/>
				<path class="st7" d="M174.4,80.8l-4.1-0.7l-0.2-19.7l3.8,0.7L174.4,80.8z"/>
				<path class="st7" d="M177,61.6l15.8,3.5l0.3,3.6l-6.1-1.3l0.5,16l-4.2-0.9l-0.3-16l-6-1.3L177,61.6z"/>
				<path class="st7" d="M209.3,69.5l0.3,3.5l-9.3-2.5l0.1,4.2l8.5,2.2l0.2,3.4l-8.6-2.2l0.1,4.6l9.7,2.5l0.1,3.5l-14-3.5l-0.2-19.3
					L209.3,69.5z"/>
			</g>
		</g>
	</g>
	<g>
		<polygon class="st4" points="121.3,40.8 115.1,45 117.4,37.9 111.4,33.3 118.9,33.2 121.5,26.1 123.9,33.3 131.4,33.5 125.4,38 
			127.4,45.2 		"/>
		<path class="st8" d="M121.5,27.5l1.9,5.6l0.2,0.6l0.6,0l5.9,0.2l-4.7,3.5l-0.5,0.4l0.2,0.6l1.6,5.7l-4.8-3.4l-0.5-0.4l-0.5,0.4
			l-4.9,3.3l1.8-5.6l0.2-0.6l-0.5-0.4l-4.7-3.6l5.9-0.1l0.6,0l0.2-0.6L121.5,27.5 M121.5,24.7l-2.9,8l-8.5,0.1l6.7,5.2l-2.6,8.1
			l7-4.8l6.9,4.9l-2.4-8.2l6.8-5.1l-8.5-0.3L121.5,24.7L121.5,24.7z"/>
	</g>
	<g>
		<polygon class="st4" points="93.9,40 89.4,37.6 94.4,36.7 95.2,31.7 97.6,36.2 102.6,35.5 99.1,39.1 101.4,43.6 96.8,41.5 
			93.2,45 		"/>
		<path class="st8" d="M95.4,33.1l1.6,3l0.3,0.6l0.6-0.1l3.4-0.5L99,38.6L98.6,39l0.3,0.6l1.5,3.1l-3.1-1.5l-0.6-0.3l-0.5,0.4
			l-2.5,2.4l0.4-3.4l0.1-0.6l-0.6-0.3l-3-1.6l3.4-0.6l0.6-0.1l0.1-0.6L95.4,33.1 M95,30.4l-1,6L88,37.4l5.3,2.8l-0.8,6l4.3-4.2
			l5.5,2.6l-2.7-5.4l4.2-4.4l-6,0.9L95,30.4L95,30.4z"/>
	</g>
	<g>
		<polygon class="st4" points="145.9,41.5 141.3,43.5 143.6,39 140.2,35.3 145.2,36.1 147.7,31.8 148.5,36.7 153.4,37.8 148.9,40 
			149.4,45.1 		"/>
		<path class="st8" d="M147.5,33.1l0.5,3.4l0.1,0.6l0.6,0.1L152,38l-3.1,1.5l-0.6,0.3l0.1,0.6l0.4,3.4l-2.4-2.4l-0.4-0.5l-0.6,0.3
			l-3.1,1.4l1.6-3l0.3-0.6l-0.4-0.5l-2.3-2.5l3.4,0.6l0.6,0.1l0.3-0.5L147.5,33.1 M148,30.4l-3,5.2l-6-1l4.1,4.5l-2.8,5.4l5.5-2.5
			l4.2,4.3l-0.7-6l5.4-2.7l-5.9-1.2L148,30.4L148,30.4z"/>
	</g>
</g>
</svg>
