<?xml version="1.0" encoding="utf-8"?>
<!-- Generator: Adobe Illustrator 19.1.0, SVG Export Plug-In . SVG Version: 6.00 Build 0)  -->
<svg version="1.1" id="Layer_1" xmlns="http://www.w3.org/2000/svg" xmlns:xlink="http://www.w3.org/1999/xlink" x="0px" y="0px"
	 viewBox="0 0 230 65" style="enable-background:new 0 0 230 65;" xml:space="preserve">
<style type="text/css">
	.st0{fill:#FFFFFF;}
</style>
<path class="st0" d="M34.8,32.3l11-11H60C55.4,12.1,45.8,5.8,34.8,5.8c-11.1,0-20.6,6.3-25.3,15.6h14.3L34.8,32.3z M6.5,34
	c0,11.1,6.3,20.6,15.6,25.3l12.7-12.7L9.5,21.3C7.6,25.2,6.5,29.5,6.5,34 M60,21.3L34.8,46.6l12.7,12.7C56.7,54.7,63,45.1,63,34
	C63,29.5,62,25.2,60,21.3 M91.2,38.4l-6.1-17h-6.6l9.6,25.4h5.9l9.6-25.4h-6.4L91.2,38.4z M107.9,46.7h18.8v-5.4h-12.9v-4.9h10.7
	v-5.1h-10.7v-4.5h12.9v-5.4h-18.8V46.7z M153.1,29.9c0-4.7-3.8-8.5-8.5-8.5h-11.7v25.4h5.9v-8.1h2.7l5.6,8.1h6.9l-6.3-8.8
	C150.8,36.7,153.1,33.5,153.1,29.9 M143.6,33.5h-4.9v-6.8h4.9c1.9,0,3.4,1.5,3.4,3.4C147,32,145.5,33.5,143.6,33.5 M156.5,26.7h7.8
	v20h5.9v-20h7.8v-5.4h-21.4V26.7z M211.5,21.3l-6.1,17l-6.1-17h-6.6l9.6,25.4h5.9l9.6-25.4H211.5z M182.7,46.7h5.9V21.3h-5.9V46.7z
	 M214.6,42.8h3.2v0.6h-1.3v3.3h-0.7v-3.3h-1.3V42.8z M219.9,46.7l-1.1-2.7v2.7h-0.6v-3.9h0.7l1.2,3l1.2-3h0.7v3.9h-0.6V44l-1,2.7
	H219.9z"/>
</svg>
