<?xml version="1.0" encoding="utf-8"?>
<!-- Generator: Adobe Illustrator 19.1.0, SVG Export Plug-In . SVG Version: 6.00 Build 0)  -->
<svg version="1.1" id="Layer_1" xmlns="http://www.w3.org/2000/svg" xmlns:xlink="http://www.w3.org/1999/xlink" x="0px" y="0px"
	 viewBox="0 0 40 40" style="enable-background:new 0 0 40 40;" xml:space="preserve">
<style type="text/css">
	.st0{fill:#F2F2F2;}
</style>
<path class="st0" d="M37.1,9.2c-1.1,0.5-2.3,0.8-3.5,1c0.6-0.1,1.4-1.1,1.7-1.5c0.5-0.6,0.9-1.3,1.2-2.1c0-0.1,0.1-0.1,0-0.2
	c-0.1,0-0.1,0-0.2,0c-1.3,0.7-2.7,1.2-4.1,1.6c-0.1,0-0.2,0-0.3-0.1c-0.1-0.1-0.2-0.3-0.4-0.4c-0.6-0.5-1.3-0.9-2-1.2
	c-1-0.4-2-0.6-3.1-0.5c-1,0.1-2,0.4-2.9,0.8c-0.9,0.5-1.7,1.1-2.3,1.9c-0.7,0.8-1.2,1.8-1.4,2.8c-0.2,1-0.2,2-0.1,3
	c0,0.2,0,0.2-0.1,0.2c-5.7-0.8-10.4-2.9-14.2-7.2C5.2,7.1,5.1,7.1,5,7.3c-1.7,2.5-0.9,6.5,1.2,8.5c0.3,0.3,0.6,0.5,0.9,0.8
	c-0.1,0-1.5-0.1-2.7-0.8c-0.2-0.1-0.2,0-0.3,0.1c0,0.3,0,0.5,0,0.8c0.3,2.5,2.1,4.9,4.5,5.8c0.3,0.1,0.6,0.2,0.9,0.3
	C9,23,8.4,23.1,6.8,22.9c-0.2,0-0.3,0.1-0.2,0.2c1.2,3.2,3.7,4.2,5.6,4.7c0.3,0,0.5,0,0.8,0.1c0,0,0,0,0,0c-0.6,1-2.8,1.7-3.9,2
	c-1.9,0.6-3.9,0.9-5.8,0.7c-0.3,0-0.4,0-0.5,0c-0.1,0.1,0,0.1,0.1,0.2c0.4,0.3,0.8,0.5,1.2,0.7C5.4,32.4,6.7,33,8,33.3
	c7,1.9,14.9,0.5,20.2-4.7c4.1-4.1,5.6-9.8,5.6-15.5c0-0.2,0.3-0.3,0.4-0.5c1.1-0.8,1.9-1.8,2.8-2.9c0.2-0.2,0.2-0.5,0.2-0.5v0
	C37.2,9.1,37.2,9.2,37.1,9.2"/>
</svg>
